HIERARCHY
ROOT SpineBase
{
  OFFSET 0.000000 0.000000 0.000000
  CHANNELS 6 Xposition Yposition Zposition Zrotation Xrotation Yrotation
  JOINT SpineMid
  {
    OFFSET -0.000000 30.629541 0.000000
    CHANNELS 3 Zrotation Xrotation Yrotation
    JOINT SpineShoulder
    {
      OFFSET 0.088421 22.665969 -0.793960
      CHANNELS 3 Zrotation Xrotation Yrotation
      JOINT Neck
      {
        OFFSET 0.067718 7.480855 -0.588282
        CHANNELS 3 Zrotation Xrotation Yrotation
        JOINT Head
        {
          OFFSET 1.370198 14.400995 0.032987
          CHANNELS 3 Zrotation Xrotation Yrotation
          End Site
          {
            OFFSET 0 0 0
          }
        }
      }
      JOINT ShoulderLeft
      {
        OFFSET -17.081122 -2.938152 -4.151051
        CHANNELS 3 Zrotation Xrotation Yrotation
        JOINT ElbowLeft
        {
          OFFSET -7.436265 -28.216564 -1.753681
          CHANNELS 3 Zrotation Xrotation Yrotation
          JOINT WristLeft
          {
            OFFSET 0.498337 -22.496078 -4.832590
            CHANNELS 3 Zrotation Xrotation Yrotation
            JOINT HandLeft
            {
              OFFSET -0.813787 -3.491496 -0.423597
              CHANNELS 3 Zrotation Xrotation Yrotation
              JOINT HandTipLeft
              {
                OFFSET 0.968114 -6.346085 -0.907262
                CHANNELS 3 Zrotation Xrotation Yrotation
                End Site
                {
                  OFFSET 0 0 0
                }
              }
              JOINT ThumbLeft
              {
                OFFSET -2.237435 0.289270 -3.310229
                CHANNELS 3 Zrotation Xrotation Yrotation
                End Site
                {
                  OFFSET 0 0 0
                }
              }
            }
          }
        }
      }
      JOINT ShoulderRight
      {
        OFFSET 18.365604 -4.376195 -0.201578
        CHANNELS 3 Zrotation Xrotation Yrotation
        JOINT ElbowRight
        {
          OFFSET 5.382208 -27.248078 -1.289216
          CHANNELS 3 Zrotation Xrotation Yrotation
          JOINT WristRight
          {
            OFFSET -0.057054 -22.094466 -6.614342
            CHANNELS 3 Zrotation Xrotation Yrotation
            JOINT HandRight
            {
              OFFSET -2.304235 -5.128595 -0.363974
              CHANNELS 3 Zrotation Xrotation Yrotation
              JOINT HandTipRight
              {
                OFFSET -0.883415 -4.933133 -0.629416
                CHANNELS 3 Zrotation Xrotation Yrotation
                End Site
                {
                  OFFSET 0 0 0
                }
              }
              JOINT ThumbRight
              {
                OFFSET 2.796130 -0.377624 -2.432048
                CHANNELS 3 Zrotation Xrotation Yrotation
                End Site
                {
                  OFFSET 0 0 0
                }
              }
            }
          }
        }
      }
    }
  }
  JOINT HipLeft
  {
    OFFSET -7.480305 0.470227 -4.533516
    CHANNELS 3 Zrotation Xrotation Yrotation
    JOINT KneeLeft
    {
      OFFSET -3.066635 -31.559763 7.890945
      CHANNELS 3 Zrotation Xrotation Yrotation
      JOINT AnkleLeft
      {
        OFFSET -2.650337 -30.640766 9.165998
        CHANNELS 3 Zrotation Xrotation Yrotation
        JOINT FootLeft
        {
          OFFSET 1.526562 -4.715311 -13.728318
          CHANNELS 3 Zrotation Xrotation Yrotation
          End Site
          {
            OFFSET 0 0 0
          }
        }
      }
    }
  }
  JOINT HipRight
  {
    OFFSET 8.426597 0.389629 -2.765201
    CHANNELS 3 Zrotation Xrotation Yrotation
    JOINT KneeRight
    {
      OFFSET 1.465450 -31.220650 4.978457
      CHANNELS 3 Zrotation Xrotation Yrotation
      JOINT AnkleRight
      {
        OFFSET -0.430258 -31.126030 5.955214
        CHANNELS 3 Zrotation Xrotation Yrotation
        JOINT FootRight
        {
          OFFSET 1.338533 -4.697784 -13.748303
          CHANNELS 3 Zrotation Xrotation Yrotation
          End Site
          {
            OFFSET 0 0 0
          }
        }
      }
    }
  }
}
MOTION
Frames: 14
Frame Time: 0.033333
-50.604156 74.461520 386.427830 0.000000 0.000000 -6.343329 -0.000000 0.000000 6.343329 -0.000000 0.000000 0.000000 -0.000000 0.000000 0.000000 0.000000 0.000000 0.000000 -0.000000 0.000000 0.000000 -0.000000 0.000000 0.000000 -0.000000 0.000000 0.000000 -0.000000 0.000000 0.000000 0.000000 0.000000 0.000000 0.000000 0.000000 0.000000 -0.000000 0.000000 0.000000 -0.000000 0.000000 0.000000 -0.000000 0.000000 0.000000 -0.000000 0.000000 0.000000 0.000000 0.000000 0.000000 0.000000 0.000000 0.000000 -0.000000 0.000000 6.343329 -0.000000 0.000000 0.000000 -0.000000 0.000000 0.000000 0.000000 0.000000 0.000000 -0.000000 0.000000 6.343329 -0.000000 0.000000 0.000000 -0.000000 0.000000 0.000000 0.000000 0.000000 0.000000
-50.647913 74.463603 386.371573 0.119130 -0.013030 -6.590486 -0.119838 -0.000728 6.590499 -0.000000 0.000000 0.000000 -0.000000 0.000000 0.000000 0.000000 0.000000 0.000000 -0.000000 0.000000 0.000000 -0.000000 0.000000 0.000000 2.144239 -3.157452 0.539195 -1.462149 1.918742 -0.736648 0.000000 0.000000 0.000000 0.000000 0.000000 0.000000 -0.000000 0.000000 0.000000 -0.000000 0.000000 0.000000 1.158908 2.066126 -1.034892 -1.134502 -3.182908 1.193542 0.000000 0.000000 0.000000 0.000000 0.000000 0.000000 -0.119838 -0.000728 6.590499 -0.000000 0.000000 0.000000 -0.000000 0.000000 0.000000 0.000000 0.000000 0.000000 -0.119838 -0.000728 6.590499 -0.000000 0.000000 0.000000 -0.000000 0.000000 0.000000 0.000000 0.000000 0.000000
-50.705287 74.459923 386.315125 0.222531 -0.021343 -6.792870 -0.223493 -0.005128 6.792902 -0.000000 0.000000 0.000000 -0.000000 0.000000 0.000000 0.000000 0.000000 0.000000 -0.000000 0.000000 0.000000 -1.111853 0.231786 0.246184 5.600361 -5.704197 0.729172 -3.349734 3.247680 -1.109756 0.000000 0.000000 0.000000 0.000000 0.000000 0.000000 -0.000000 0.000000 0.000000 -0.000000 0.000000 0.000000 2.181333 3.874598 -1.982108 -1.784978 -5.770950 2.162991 0.000000 0.000000 0.000000 0.000000 0.000000 0.000000 -0.223493 -0.005128 6.792902 -0.000000 0.000000 0.000000 -0.000000 0.000000 0.000000 0.000000 0.000000 0.000000 -0.223493 -0.005128 6.792902 -0.000000 0.000000 0.000000 -0.000000 0.000000 0.000000 0.000000 0.000000 0.000000
-50.776278 74.450478 386.258485 0.310200 -0.024940 -6.950675 -0.310938 -0.012782 6.950708 -0.000000 0.000000 0.000000 -0.000000 0.000000 0.000000 0.000000 0.000000 0.000000 -0.000000 0.000000 0.000000 -1.248356 0.281933 0.277418 8.302104 -7.240330 0.974338 -5.657290 4.004497 -1.131953 0.000000 0.000000 0.000000 0.000000 0.000000 0.000000 -0.000000 0.000000 0.000000 -0.794559 0.245311 0.238778 3.877204 5.179117 -3.055449 -1.985463 -7.746608 2.950329 0.000000 0.000000 0.000000 0.000000 0.000000 0.000000 -0.310938 -0.012782 6.950708 -0.000000 0.000000 0.000000 -0.000000 0.000000 0.000000 0.000000 0.000000 0.000000 -0.310938 -0.012782 6.950708 -0.000000 0.000000 0.000000 -0.000000 0.000000 0.000000 0.000000 0.000000 0.000000
-50.860888 74.435270 386.201653 0.382137 -0.023825 -7.064035 -0.382166 -0.023351 7.064037 -0.000000 0.000000 0.000000 -0.000000 0.000000 0.000000 0.000000 0.000000 0.000000 -0.794121 -0.340991 0.136634 -0.308347 0.630651 0.111464 10.932072 -7.947432 1.084221 -8.381710 4.197944 -0.836284 0.000000 0.000000 0.000000 0.000000 0.000000 0.000000 -0.000000 0.000000 0.000000 -0.934401 0.326079 0.281305 4.762621 6.429617 -3.835846 -1.762678 -9.101467 3.581527 0.000000 0.000000 0.000000 0.000000 0.000000 0.000000 -0.382166 -0.023351 7.064037 -0.000000 0.000000 0.000000 -0.000000 0.000000 0.000000 0.000000 0.000000 0.000000 -0.382166 -0.023351 7.064037 -0.000000 0.000000 0.000000 -0.000000 0.000000 0.000000 0.000000 0.000000 0.000000
-50.959115 74.414297 386.144630 0.438348 -0.018004 -7.133030 -0.437191 -0.036566 7.132959 -0.000000 0.000000 0.000000 -0.000000 0.000000 0.000000 0.000000 0.000000 0.000000 -0.803960 -0.424406 0.158583 0.805153 0.422137 -0.164526 12.820228 -7.575454 1.096129 -11.518612 3.825045 -0.274675 0.000000 0.000000 0.000000 0.000000 0.000000 0.000000 -0.000000 0.000000 0.000000 -1.011729 0.406626 0.305094 5.437693 7.469935 -4.489807 -1.138948 -9.833518 4.068033 0.000000 0.000000 0.000000 0.000000 0.000000 0.000000 -0.437191 -0.036566 7.132959 -0.000000 0.000000 0.000000 -0.000000 0.000000 0.000000 0.000000 0.000000 0.000000 -0.437191 -0.036566 7.132959 -0.000000 0.000000 0.000000 -0.000000 0.000000 0.000000 0.000000 0.000000 0.000000
-51.074653 74.388677 386.096186 0.455707 0.008958 -7.126393 -0.451076 -0.065422 7.126100 -0.000000 0.000000 0.000000 -0.000000 0.000000 0.000000 0.000000 0.000000 0.000000 -0.685488 -0.497675 0.170563 0.686993 0.495597 -0.176512 17.091819 -6.008803 0.225778 -16.138332 1.964613 0.761661 0.000000 0.000000 0.000000 0.000000 0.000000 0.000000 -0.000000 0.000000 0.000000 -1.003668 0.600132 0.303695 5.943872 9.869880 -5.838791 0.692552 -9.682418 4.856229 0.000000 0.000000 0.000000 0.000000 0.000000 0.000000 -0.451076 -0.065422 7.126100 0.823690 -0.146979 0.260237 -0.823016 0.150704 -0.258098 0.000000 0.000000 0.000000 0.155683 -0.829092 7.172570 -0.506717 0.833412 -0.038049 -0.000000 0.000000 0.000000 0.000000 0.000000 0.000000
-51.198817 74.357279 386.056485 0.466551 0.040937 -7.072406 -0.457962 -0.098067 7.071847 -0.000000 0.000000 0.000000 -0.000000 0.000000 0.000000 0.000000 0.000000 0.000000 -0.000000 0.000000 0.000000 1.439692 -0.054909 -0.309761 19.624415 -3.236898 -0.944624 -21.054082 -0.329344 1.893351 0.000000 0.000000 0.000000 0.000000 0.000000 0.000000 -0.000000 0.000000 0.000000 -0.938851 0.746828 0.284695 6.136945 10.246492 -6.112082 2.603592 -9.403110 5.086422 0.000000 0.000000 0.000000 0.000000 0.000000 0.000000 -0.457962 -0.098067 7.071847 1.022048 -0.321394 0.336390 -1.020160 0.327337 -0.330609 0.000000 0.000000 0.000000 0.246619 -0.825341 7.136706 -0.608831 0.809118 -0.054882 0.276697 2.103700 -0.204262 0.000000 0.000000 0.000000
-51.351378 74.315472 385.999544 0.490846 0.065976 -7.011907 -0.479121 -0.125399 7.011100 -0.000000 0.000000 0.000000 -0.000000 0.000000 0.000000 0.000000 0.000000 0.000000 -0.000000 0.000000 0.000000 2.652762 -0.011407 -0.569670 21.516380 -2.776214 -1.198857 -24.237347 2.025967 2.801208 0.000000 0.000000 0.000000 0.000000 0.000000 0.000000 -0.000000 0.000000 0.000000 -0.858698 0.777222 0.260353 6.092152 9.132853 -5.548255 4.255259 -9.524627 4.901113 0.000000 0.000000 0.000000 0.000000 0.000000 0.000000 -0.479121 -0.125399 7.011100 1.261057 -0.549200 0.430592 -1.256954 0.558528 -0.418421 0.000000 0.000000 0.000000 0.417334 -0.412753 7.132966 -0.853856 0.396392 -0.114702 0.274428 1.706981 -0.307209 0.000000 0.000000 0.000000
-51.511528 74.291449 385.952989 0.576282 0.137760 -7.088257 -0.554882 -0.207811 7.086558 0.739616 0.427922 0.051546 -0.740021 -0.427221 -0.057067 0.000000 0.000000 0.000000 -0.740021 -0.427221 -0.057067 3.781986 0.078751 -0.812866 22.320424 -2.569691 -1.247066 -26.828161 0.510934 3.009194 0.000000 0.000000 0.000000 0.000000 0.000000 0.000000 -0.048944 -0.848969 -0.165147 -1.383317 0.876830 0.331266 6.090528 8.015709 -4.836133 4.203429 -7.776097 3.982078 0.000000 0.000000 0.000000 0.000000 0.000000 0.000000 -0.554882 -0.207811 7.086558 1.515049 -0.851856 0.537607 -1.507162 0.865736 -0.514956 0.000000 0.000000 0.000000 0.535611 0.275474 7.284189 -1.703362 -1.600110 -0.299883 0.657409 -2.296780 -1.348499 0.000000 0.000000 0.000000
-51.684618 74.249765 385.877690 0.632479 0.089747 -6.984500 -0.616874 -0.165984 6.983111 -0.000000 0.000000 0.000000 -0.000000 0.000000 0.000000 0.000000 0.000000 0.000000 0.251342 -0.871125 0.216099 4.480235 0.791553 -1.297741 22.324688 -1.489152 -1.660634 -27.840178 -2.105830 2.891674 0.000000 0.000000 0.000000 0.000000 0.000000 0.000000 0.841640 -0.534970 -0.141390 -0.842994 0.532834 0.149239 4.144909 7.125003 -3.801423 4.824170 -7.964650 3.568678 0.000000 0.000000 0.000000 0.000000 0.000000 0.000000 -0.616874 -0.165984 6.983111 1.750971 -1.238190 0.648613 -1.474793 1.232479 -1.388033 0.000000 0.000000 0.000000 0.676159 2.611311 7.337130 -2.665536 -5.761495 -0.639839 0.886875 -5.067404 -2.414796 0.000000 0.000000 0.000000
-51.865354 74.175715 385.689283 0.630647 -0.048727 -6.887871 -0.631939 -0.027258 6.887989 -0.000000 0.000000 0.000000 -0.543801 -0.740012 0.068114 0.000000 0.000000 0.000000 0.407678 -1.092515 0.266890 4.660954 1.002166 -1.440711 23.060150 -0.732159 -2.100395 -27.019738 -4.251992 2.600351 0.000000 0.000000 0.000000 0.000000 0.000000 0.000000 0.848757 -0.924524 -0.215699 -0.852341 0.921220 0.229399 3.189354 7.996470 -4.077040 1.968543 -9.553503 4.106421 0.000000 0.000000 0.000000 0.000000 0.000000 0.000000 -0.631939 -0.027258 6.887989 1.957771 -1.626668 0.752126 -1.638754 1.597419 -1.591484 0.000000 0.000000 0.000000 0.875862 5.930536 7.436267 -3.230522 -10.611472 -0.973980 0.797001 -3.810496 -2.836340 0.000000 0.000000 0.000000
-52.113476 74.094367 385.485528 0.709465 -0.085846 -7.005967 -0.714638 -0.001335 7.006490 -0.000000 0.000000 0.000000 -1.023372 -1.617296 0.141673 0.000000 0.000000 0.000000 0.750894 -1.087943 0.247762 4.437593 1.102627 -1.444910 23.555058 0.833300 -2.969644 -24.246237 -5.636965 2.467292 0.000000 0.000000 0.000000 0.000000 0.000000 0.000000 0.493579 -1.561182 -0.324954 -0.502610 1.558298 0.338514 1.825682 11.586175 -5.533667 1.203892 -15.091208 6.162985 0.000000 0.000000 0.000000 0.000000 0.000000 0.000000 -0.714638 -0.001335 7.006490 2.172210 -1.962731 0.853891 -1.806512 1.930958 -1.794633 0.000000 0.000000 0.000000 1.009380 9.840333 7.782038 -4.036446 -16.658011 -1.446026 0.237151 -7.357796 -4.128265 0.000000 0.000000 0.000000
-52.268666 73.949610 385.055567 0.379843 -0.614236 -7.220031 -0.454049 0.561611 7.224293 -0.000000 0.000000 0.000000 -1.585658 -3.028026 0.249578 0.000000 0.000000 0.000000 0.564225 -1.537944 0.378650 4.131335 1.468521 -1.493593 27.060591 2.550162 -4.485780 -24.492331 -13.179816 2.274326 0.000000 0.000000 0.000000 0.000000 0.000000 0.000000 0.163958 -2.500354 -0.498514 0.217657 3.474383 0.359760 -0.966835 13.211172 -6.112608 0.769306 -18.454736 7.166946 0.000000 0.000000 0.000000 0.000000 0.000000 0.000000 -0.454049 0.561611 7.224293 2.331262 -2.383166 0.947891 -1.959406 2.271114 -1.892226 0.000000 0.000000 0.000000 1.575478 14.652557 8.223359 -4.246724 -21.820881 -1.663540 -1.055867 -9.859518 -4.884192 0.000000 0.000000 0.000000
